<svg width="1914" height="1276" viewBox="0 0 1914 1276" fill="none" xmlns="http://www.w3.org/2000/svg">
<path d="M1914 0H0V1276H1914V0Z" fill="black"/>
<path d="M434.12 1144.8H411.356V1167.54H434.12V1144.8Z" stroke="#428BF3" stroke-miterlimit="10"/>
<path d="M433.406 1145.52H412.046V1166.88H433.406V1145.52Z" stroke="#428BF3" stroke-width="0.55" stroke-miterlimit="10"/>
<path d="M184.713 1131.53H135.383V1180.86H184.713V1131.53Z" stroke="#428BF3" stroke-miterlimit="10"/>
<path d="M183.182 1133.04H136.889V1179.33H183.182V1133.04Z" stroke="#428BF3" stroke-width="1.18" stroke-miterlimit="10"/>
<path d="M562.511 1028.89H539.619V1051.78H562.511V1028.89Z" fill="#D75AAC"/>
<path d="M392.088 875.259H350.235V917.112H392.088V875.259Z" stroke="#428BF3" stroke-miterlimit="10"/>
<path d="M390.812 876.535H351.512V915.836H390.812V876.535Z" stroke="#428BF3" stroke-miterlimit="10"/>
<path d="M171.442 885.059H128.211V928.265H171.442V885.059Z" stroke="#428BF3" stroke-miterlimit="10"/>
<path d="M170.116 886.386H129.539V926.963H170.116V886.386Z" stroke="#428BF3" stroke-width="1.04" stroke-miterlimit="10"/>
<path d="M567.333 811.332H534.744V843.921H567.333V811.332Z" stroke="#000069" stroke-miterlimit="10"/>
<path d="M566.364 812.327H535.766V842.926H566.364V812.327Z" stroke="#000069" stroke-width="0.78" stroke-miterlimit="10"/>
<path d="M376.164 744.061H350.235V769.99H376.164V744.061Z" fill="#D75AAC"/>
<path d="M404.058 544.418H380.146V568.33H404.058V544.418Z" stroke="#428BF3" stroke-miterlimit="10"/>
<path d="M403.317 545.133H380.859V567.59H403.317V545.133Z" stroke="#428BF3" stroke-width="0.57" stroke-miterlimit="10"/>
<path d="M339.645 393.927H312.109V421.463H339.645V393.927Z" stroke="#D75AAC" stroke-width="0.7" stroke-miterlimit="10"/>
<path d="M138.368 285.977H120.683V303.663H138.368V285.977Z" fill="#000069"/>
<path d="M137.859 286.513H121.245V303.127H137.859V286.513Z" fill="#000069"/>
<path d="M377.158 195.381H355.339V217.226H377.158V195.381Z" stroke="#D75AAC" stroke-width="0.56" stroke-miterlimit="10"/>
<path d="M436.671 89.7026H429.475V96.8993H436.671V89.7026Z" stroke="#D75AAC" stroke-width="0.18" stroke-miterlimit="10"/>
<path d="M755.162 244.15H720.557V278.755H755.162V244.15Z" stroke="#D75AAC" stroke-width="0.88" stroke-miterlimit="10"/>
<path d="M1097.21 1203.45H1086.74V1213.91H1097.21V1203.45Z" fill="#000069"/>
<path d="M1107.16 1002.58H1080.85V1028.89H1107.16V1002.58Z" stroke="#D75AAC" stroke-width="1.34" stroke-miterlimit="10"/>
<path d="M963.328 885.799H911.318V937.809H963.328V885.799Z" stroke="#000069" stroke-miterlimit="10"/>
<path d="M961.745 887.381H912.926V936.201H961.745V887.381Z" stroke="#000069" stroke-width="1.25" stroke-miterlimit="10"/>
<path d="M1062.78 375.195H1010.77V427.205H1062.78V375.195Z" stroke="#000069" stroke-miterlimit="10"/>
<path d="M1061.2 376.778H1012.38V425.597H1061.2V376.778Z" stroke="#000069" stroke-width="1.25" stroke-miterlimit="10"/>
<path d="M866.607 691.158H858.287V699.478H866.607V691.158Z" stroke="#D75AAC" stroke-miterlimit="10"/>
<path d="M866.353 691.413H858.544V699.222H866.353V691.413Z" stroke="#D75AAC" stroke-width="0.2" stroke-miterlimit="10"/>
<path d="M1222.18 513.258H1180.48V554.958H1222.18V513.258Z" stroke="#D75AAC" stroke-width="1.07" stroke-miterlimit="10"/>
<path d="M760.112 482.099H746.612V495.599H760.112V482.099Z" stroke="#D75AAC" stroke-width="0.34" stroke-miterlimit="10"/>
<path d="M886.641 373.868H846.549V413.96H886.641V373.868Z" stroke="#D75AAC" stroke-width="1.02" stroke-miterlimit="10"/>
<path d="M1161.77 235.447H1153.07V244.15H1161.77V235.447Z" stroke="#D75AAC" stroke-width="0.22" stroke-miterlimit="10"/>
<path d="M986.577 140.845H969.453V157.969H986.577V140.845Z" stroke="#002252" stroke-miterlimit="10"/>
<path d="M986.041 141.355H969.963V157.433H986.041V141.355Z" stroke="#002252" stroke-width="0.41" stroke-miterlimit="10"/>
<path d="M1103.89 75.5137H1090.78V88.6309H1103.89V75.5137Z" fill="#D75AAC"/>
<path d="M1820.78 128.952H1812.25V137.476H1820.78V128.952Z" stroke="#D75AAC" stroke-width="0.22" stroke-miterlimit="10"/>
<path d="M1570.27 146H1538.17V178.104H1570.27V146Z" fill="#D75AAC"/>
<path d="M1391.73 219.676H1324.51V286.896H1391.73V219.676Z" stroke="#002252" stroke-miterlimit="10"/>
<path d="M1389.69 221.718H1326.58V284.829H1389.69V221.718Z" stroke="#002252" stroke-width="1.61" stroke-miterlimit="10"/>
<path d="M1532.48 357.612H1484.57V405.513H1532.48V357.612Z" stroke="#D75AAC" stroke-width="1.22" stroke-miterlimit="10"/>
<path d="M1819.27 465.026H1771.65V512.646H1819.27V465.026Z" stroke="#002252" stroke-miterlimit="10"/>
<path d="M1817.81 466.505H1773.1V511.216H1817.81V466.505Z" stroke="#002252" stroke-width="1.14" stroke-miterlimit="10"/>
<path d="M1109.91 594.233H1084.75V619.396H1109.91V594.233Z" stroke="#002252" stroke-miterlimit="10"/>
<path d="M1109.12 594.999H1085.52V618.604H1109.12V594.999Z" stroke="#002252" stroke-width="0.6" stroke-miterlimit="10"/>
<path d="M1583.08 719.026H1553.3V748.808H1583.08V719.026Z" fill="#002252"/>
<path d="M1582.19 719.944H1554.22V747.914H1582.19V719.944Z" fill="#002252"/>
<path d="M1402.88 952.406H1386.71V968.586H1402.88V952.406Z" stroke="#002252" stroke-miterlimit="10"/>
<path d="M1402.4 952.917H1387.21V968.101H1402.4V952.917Z" stroke="#002252" stroke-width="0.39" stroke-miterlimit="10"/>
<path d="M1677.96 1000.13H1646.75V1031.34H1677.96V1000.13Z" fill="#D75AAC"/>
<path d="M731.965 896.186H700.754V927.396H731.965V896.186Z" stroke="#D75AAC" stroke-width="0.8" stroke-miterlimit="10"/>
<path d="M676.84 689.704H672.119V694.425H676.84V689.704Z" stroke="#002252" stroke-miterlimit="10"/>
<path d="M676.713 689.857H672.272V694.297H676.713V689.857Z" stroke="#002252" stroke-width="0.11" stroke-miterlimit="10"/>
<path d="M513.971 630.063H505.167V638.867H513.971V630.063Z" stroke="#002252" stroke-miterlimit="10"/>
<path d="M513.717 630.344H505.448V638.612H513.717V630.344Z" stroke="#002252" stroke-width="0.21" stroke-miterlimit="10"/>
<path d="M737.858 590.737H705.729V622.867H737.858V590.737Z" fill="#000069"/>
<path d="M605.537 397.857H585.861V417.533H605.537V397.857Z" stroke="#428BF3" stroke-miterlimit="10"/>
<path d="M604.951 398.444H586.475V416.92H604.951V398.444Z" stroke="#428BF3" stroke-width="0.47" stroke-miterlimit="10"/>
<path d="M474.085 309.966H457.905V326.146H474.085V309.966Z" fill="#428BF3"/>
<path d="M473.573 310.477H458.389V325.661H473.573V310.477Z" fill="#428BF3"/>
<path d="M1467.73 788.517H1458.16V798.087H1467.73V788.517Z" stroke="#D75AAC" stroke-width="0.24" stroke-miterlimit="10"/>
<path d="M1252.19 740.488H1235.68V757H1252.19V740.488Z" stroke="#D75AAC" stroke-width="0.42" stroke-miterlimit="10"/>
<path d="M1389.36 718.286H1366.06V741.586H1389.36V718.286Z" stroke="#428BF3" stroke-miterlimit="10"/>
<path d="M1388.64 719H1366.77V740.871H1388.64V719Z" stroke="#428BF3" stroke-width="0.56" stroke-miterlimit="10"/>
<path d="M1385.2 625.036H1378.26V631.977H1385.2V625.036Z" stroke="#D75AAC" stroke-width="0.18" stroke-miterlimit="10"/>
<path d="M1463.42 592.983H1456.48V599.924H1463.42V592.983Z" stroke="#428BF3" stroke-miterlimit="10"/>
<path d="M1463.21 593.187H1456.68V599.72H1463.21V593.187Z" stroke="#428BF3" stroke-width="0.17" stroke-miterlimit="10"/>
<path d="M1605.31 541.917H1590.87V556.362H1605.31V541.917Z" stroke="#D75AAC" stroke-width="0.37" stroke-miterlimit="10"/>
<path d="M1275.39 1070.84H1228.99V1117.24H1275.39V1070.84Z" stroke="#D75AAC" stroke-width="1.19" stroke-miterlimit="10"/>
<path d="M1358.17 935.155H1346.87V946.46H1358.17V935.155Z" stroke="#002252" stroke-miterlimit="10"/>
<path d="M1357.84 935.487H1347.22V946.103H1357.84V935.487Z" stroke="#002252" stroke-width="0.27" stroke-miterlimit="10"/>
<path d="M1508.51 900.831H1473.78V935.563H1508.51V900.831Z" stroke="#D75AAC" stroke-width="0.89" stroke-miterlimit="10"/>
<path d="M1054.77 115.223H1018.81V151.18H1054.77V115.223Z" fill="#000069"/>
<path d="M618.656 148.348H591.222V175.782H618.656V148.348Z" fill="#D75AAC"/>
<path d="M858.544 1097.54H819.141V1136.94H858.544V1097.54Z" stroke="#D75AAC" stroke-width="1.01" stroke-miterlimit="10"/>
<path d="M1373.21 62.0903H1331.84V103.458H1373.21V62.0903Z" stroke="#D75AAC" stroke-width="1.06" stroke-miterlimit="10"/>
<path d="M1830.14 318.056H1788.26V359.934H1830.14V318.056Z" stroke="#D75AAC" stroke-width="1.58" stroke-miterlimit="10"/>
<path d="M1725.07 185.505H1660.38V250.198H1725.07V185.505Z" stroke="#428BF3" stroke-miterlimit="10"/>
<path d="M1723.08 187.496H1662.35V248.233H1723.08V187.496Z" stroke="#428BF3" stroke-width="1.55" stroke-miterlimit="10"/>
<path d="M1839.3 827.818H1797.93V869.185H1839.3V827.818Z" stroke="#D75AAC" stroke-width="1.06" stroke-miterlimit="10"/>
<path d="M1816.49 1173.72H1776.29V1213.91H1816.49V1173.72Z" fill="#000069"/>
<path d="M1487.38 1076.64H1426.64V1137.38H1487.38V1076.64Z" stroke="#D75AAC" stroke-width="1.55" stroke-miterlimit="10"/>
<path d="M1352.51 406.508H1311.14V447.876H1352.51V406.508Z" stroke="#428BF3" stroke-width="1.06" stroke-miterlimit="10"/>
<path d="M1158.05 796.76H1091.97V862.831H1158.05V796.76Z" stroke="#428BF3" stroke-miterlimit="10"/>
<path d="M1156 798.802H1093.99V860.815H1156V798.802Z" stroke="#428BF3" stroke-width="1.58" stroke-miterlimit="10"/>
<path d="M281.738 991H221V1051.74H281.738V991Z" fill="#D75AAC"/>
<path d="M127.727 120.684H86.3594V162.052H127.727V120.684Z" stroke="#D75AAC" stroke-width="1.06" stroke-miterlimit="10"/>
<path d="M224.091 441.216H158.02V507.287H224.091V441.216Z" stroke="#000069" stroke-miterlimit="10"/>
<path d="M222.074 443.232H160.061V505.245H222.074V443.232Z" stroke="#000069" stroke-width="1.58" stroke-miterlimit="10"/>
<path d="M135.434 634.479H74.6963V695.216H135.434V634.479Z" stroke="#D75AAC" stroke-width="1.55" stroke-miterlimit="10"/>
<g opacity="0.7">
<path opacity="0.7" d="M135.434 26.3623H74.6963V634.453H135.434V26.3623Z" fill="url(#paint0_linear)"/>
</g>
<g opacity="0.7">
<path opacity="0.7" d="M221.437 0H160.699V441.215H221.437V0Z" fill="url(#paint1_linear)"/>
</g>
<g opacity="0.7">
<path opacity="0.7" d="M376.164 135.945H350.517V744.036H376.164V135.945Z" fill="url(#paint2_linear)"/>
</g>
<g opacity="0.7">
<path opacity="0.7" d="M866.607 83.0674H858.287V691.158H866.607V83.0674Z" fill="url(#paint3_linear)"/>
</g>
<g opacity="0.7">
<path opacity="0.7" d="M1103.89 0H1090.78V75.5137H1103.89V0Z" fill="url(#paint4_linear)"/>
</g>
<g opacity="0.7">
<path opacity="0.7" d="M1385.2 16.9453H1378.26V625.036H1385.2V16.9453Z" fill="url(#paint5_linear)"/>
</g>
<g opacity="0.7">
<path opacity="0.7" d="M1161.77 0H1153.07V235.422H1161.77V0Z" fill="url(#paint6_linear)"/>
</g>
<g opacity="0.7">
<path opacity="0.7" d="M434.095 537.4H412.046V1144.8H434.095V537.4Z" fill="url(#paint7_linear)"/>
</g>
<g opacity="0.7">
<path opacity="0.7" d="M474.083 0H458.389V309.966H474.083V0Z" fill="url(#paint8_linear)"/>
</g>
<g opacity="0.7">
<path opacity="0.7" d="M1605.31 0H1590.87V541.917H1605.31V0Z" fill="url(#paint9_linear)"/>
</g>
<path d="M513.971 22.9429H505.167V630.064H513.971V22.9429Z" fill="url(#paint10_linear)"/>
<g opacity="0.7">
<path opacity="0.7" d="M1677.96 395.177H1646.75V1000.13H1677.96V395.177Z" fill="url(#paint11_linear)"/>
</g>
<g opacity="0.7">
<path opacity="0.7" d="M1107.13 397.014H1081.71V1002.6H1107.13V397.014Z" fill="url(#paint12_linear)"/>
</g>
<g opacity="0.7">
<path opacity="0.7" d="M605.537 0H585.861V397.857H605.537V0Z" fill="url(#paint13_linear)"/>
</g>
<g opacity="0.7">
<path opacity="0.7" d="M858.544 162.052H819.141V1097.51H858.544V162.052Z" fill="url(#paint14_linear)"/>
</g>
<g opacity="0.7">
<path opacity="0.7" d="M567.361 203.216H536.992V811.306H567.361V203.216Z" fill="url(#paint15_linear)"/>
</g>
<g opacity="0.7">
<path opacity="0.7" d="M736.992 0H706.623V590.941H736.992V0Z" fill="url(#paint16_linear)"/>
</g>
<g opacity="0.7">
<path opacity="0.7" d="M1051.96 0H1021.59V115.223H1051.96V0Z" fill="url(#paint17_linear)"/>
</g>
<g opacity="0.7">
<path opacity="0.7" d="M1389.69 0H1324.51V221.718H1389.69V0Z" fill="url(#paint18_linear)"/>
</g>
<g opacity="0.7">
<path opacity="0.7" d="M1817.81 0H1773.1V466.48H1817.81V0Z" fill="url(#paint19_linear)"/>
</g>
<g opacity="0.7">
<path opacity="0.7" d="M1582.19 118.388H1554.22V726.887H1582.19V118.388Z" fill="url(#paint20_linear)"/>
</g>
<g opacity="0.7">
<path opacity="0.7" d="M1816.49 568.815H1776.29V1177.31H1816.49V568.815Z" fill="url(#paint21_linear)"/>
</g>
<g opacity="0.7">
<path opacity="0.7" d="M963.328 278.882H911.318V887.381H963.328V278.882Z" fill="url(#paint22_linear)"/>
</g>
<defs>
<linearGradient id="paint0_linear" x1="105.065" y1="655.022" x2="105.065" y2="221.156" gradientUnits="userSpaceOnUse">
<stop stop-color="#D75AAC" stop-opacity="0.1"/>
<stop offset="1" stop-color="#D75AAC" stop-opacity="0"/>
</linearGradient>
<linearGradient id="paint1_linear" x1="191.068" y1="456.119" x2="191.068" y2="141.33" gradientUnits="userSpaceOnUse">
<stop stop-color="#002252" stop-opacity="0.3"/>
<stop offset="1" stop-color="#000069" stop-opacity="0"/>
</linearGradient>
<linearGradient id="paint2_linear" x1="4001.96" y1="182326" x2="4001.96" y2="78944.5" gradientUnits="userSpaceOnUse">
<stop stop-color="#428BF3" stop-opacity="0.1"/>
<stop offset="1" stop-color="#428BF3" stop-opacity="0"/>
</linearGradient>
<linearGradient id="paint3_linear" x1="3669.85" y1="169667" x2="3669.85" y2="66285.9" gradientUnits="userSpaceOnUse">
<stop stop-color="#428BF3" stop-opacity="0.1"/>
<stop offset="1" stop-color="#428BF3" stop-opacity="0"/>
</linearGradient>
<linearGradient id="paint4_linear" x1="1097.33" y1="66.352" x2="1097.33" y2="-53.8217" gradientUnits="userSpaceOnUse">
<stop offset="0.01" stop-color="#D75AAC" stop-opacity="0.1"/>
<stop offset="1" stop-color="#D75AAC" stop-opacity="0"/>
</linearGradient>
<linearGradient id="paint5_linear" x1="1381.73" y1="645.579" x2="1381.73" y2="211.714" gradientUnits="userSpaceOnUse">
<stop stop-color="#D75AAC" stop-opacity="0.1"/>
<stop offset="1" stop-color="#D75AAC" stop-opacity="0"/>
</linearGradient>
<linearGradient id="paint6_linear" x1="5099.95" y1="22452.2" x2="5099.95" y2="6956.72" gradientUnits="userSpaceOnUse">
<stop stop-color="#428BF3" stop-opacity="0.1"/>
<stop offset="1" stop-color="#428BF3" stop-opacity="0"/>
</linearGradient>
<linearGradient id="paint7_linear" x1="423.071" y1="1165.35" x2="423.071" y2="731.965" gradientUnits="userSpaceOnUse">
<stop stop-color="#428BF3" stop-opacity="0.1"/>
<stop offset="1" stop-color="#428BF3" stop-opacity="0"/>
</linearGradient>
<linearGradient id="paint8_linear" x1="466.249" y1="320.455" x2="466.249" y2="99.2983" gradientUnits="userSpaceOnUse">
<stop offset="0.01" stop-color="#428BF3" stop-opacity="0.1"/>
<stop offset="1" stop-color="#428BF3" stop-opacity="0"/>
</linearGradient>
<linearGradient id="paint9_linear" x1="1598.09" y1="560.241" x2="1598.09" y2="173.587" gradientUnits="userSpaceOnUse">
<stop stop-color="#D75AAC" stop-opacity="0.1"/>
<stop offset="1" stop-color="#D75AAC" stop-opacity="0"/>
</linearGradient>
<linearGradient id="paint10_linear" x1="2263.23" y1="154796" x2="2263.23" y2="51743.6" gradientUnits="userSpaceOnUse">
<stop stop-color="#002252" stop-opacity="0.3"/>
<stop offset="1" stop-color="#000069" stop-opacity="0"/>
</linearGradient>
<linearGradient id="paint11_linear" x1="1662.35" y1="1020.57" x2="1662.35" y2="588.951" gradientUnits="userSpaceOnUse">
<stop stop-color="#D75AAC" stop-opacity="0.1"/>
<stop offset="1" stop-color="#D75AAC" stop-opacity="0"/>
</linearGradient>
<linearGradient id="paint12_linear" x1="11982.5" y1="243166" x2="11982.5" y2="140633" gradientUnits="userSpaceOnUse">
<stop stop-color="#428BF3" stop-opacity="0.1"/>
<stop offset="1" stop-color="#428BF3" stop-opacity="0"/>
</linearGradient>
<linearGradient id="paint13_linear" x1="5178.79" y1="64118.6" x2="5178.79" y2="19865" gradientUnits="userSpaceOnUse">
<stop stop-color="#428BF3" stop-opacity="0.1"/>
<stop offset="1" stop-color="#428BF3" stop-opacity="0"/>
</linearGradient>
<linearGradient id="paint14_linear" x1="13770.9" y1="414057" x2="13770.9" y2="169396" gradientUnits="userSpaceOnUse">
<stop stop-color="#00E0DE" stop-opacity="0.1"/>
<stop offset="1" stop-color="#00E0DE" stop-opacity="0"/>
</linearGradient>
<linearGradient id="paint15_linear" x1="552.177" y1="831.875" x2="552.177" y2="398.01" gradientUnits="userSpaceOnUse">
<stop stop-color="#002252"/>
<stop offset="1" stop-color="#000069" stop-opacity="0"/>
</linearGradient>
<linearGradient id="paint16_linear" x1="9296.13" y1="141459" x2="9296.13" y2="43830.1" gradientUnits="userSpaceOnUse">
<stop stop-color="#000069" stop-opacity="0.3"/>
<stop offset="1" stop-color="#000069" stop-opacity="0"/>
</linearGradient>
<linearGradient id="paint17_linear" x1="13359.2" y1="4340.44" x2="13359.2" y2="-3078.75" gradientUnits="userSpaceOnUse">
<stop stop-color="#000069" stop-opacity="0.3"/>
<stop offset="1" stop-color="#000069" stop-opacity="0"/>
</linearGradient>
<linearGradient id="paint18_linear" x1="35984.9" y1="19914.7" x2="35984.9" y2="6170.41" gradientUnits="userSpaceOnUse">
<stop stop-color="#000069" stop-opacity="0.3"/>
<stop offset="1" stop-color="#000069" stop-opacity="0"/>
</linearGradient>
<linearGradient id="paint19_linear" x1="33229.6" y1="88150.7" x2="33229.6" y2="27312.4" gradientUnits="userSpaceOnUse">
<stop stop-color="#000069" stop-opacity="0.3"/>
<stop offset="1" stop-color="#000069" stop-opacity="0"/>
</linearGradient>
<linearGradient id="paint20_linear" x1="18741.7" y1="178336" x2="18741.7" y2="74817.7" gradientUnits="userSpaceOnUse">
<stop stop-color="#002252" stop-opacity="0.3"/>
<stop offset="1" stop-color="#000069" stop-opacity="0"/>
</linearGradient>
<linearGradient id="paint21_linear" x1="30069.7" y1="286186" x2="30069.7" y2="182668" gradientUnits="userSpaceOnUse">
<stop stop-color="#000069" stop-opacity="0.3"/>
<stop offset="1" stop-color="#000069" stop-opacity="0"/>
</linearGradient>
<linearGradient id="paint22_linear" x1="20014" y1="216771" x2="20014" y2="113253" gradientUnits="userSpaceOnUse">
<stop stop-color="#000069" stop-opacity="0.3"/>
<stop offset="1" stop-color="#000069" stop-opacity="0"/>
</linearGradient>
</defs>
</svg>
